:SAMPLES-PER-SECOND 30
:FULLY-SPECIFIED
:DEGREES
916
root  76.2978 40.1889 -3.30435 -68.759 -85.116 68.4242
RightUpLeg  5.47427 -10.5171 -7.62375
RightLeg  8.09384 -11.1369 3.34916
RightFoot  -10.0157 -0.0549027 -1.40418
RightToes  0.00048216 0.542163 -0.142577
Spine  2.97741 -0.264622 1.92329
Spine1  9.44364 0.379647 -1.67417
HEad  -10.8508 -1.59072 1.73002
LeftShoulder1  7.79298 -11.797 -44.3505
LeftArm  -11.8405 19.5942 -27.8789
LeftForeArm  31.9254 -25.596 -3.79766
LeftHand  -0.25398 0.0180481 5.50724
RightShoulder  5.04353 8.94278 34.5672
RightArm  3.11415 -9.82808 39.4808
RightForeArm  5.26141 20.4934 4.94504
RightHand  -0.754545 1.52091 -12.8237
LeftUpLeg  -4.11653 1.16097 -2.72767
LeftLeg  -4.00758 19.7194 -6.08782
LeftFoot  6.28234 -0.774627 4.7167
LeftToes  1.06246e-005 4.65856e-005 -8.18502e-006
917
root  76.2995 40.1898 -3.3243 -65.9643 -85.032 65.6038
RightUpLeg  5.55539 -10.568 -7.60817
RightLeg  8.04973 -11.3189 3.41828
RightFoot  -9.98434 -0.0514145 -1.46191
RightToes  0.00048216 0.542163 -0.142577
Spine  2.90834 -0.242294 1.94601
Spine1  9.59464 0.399466 -1.65317
HEad  -11.1373 -2.13959 1.46381
LeftShoulder1  7.77331 -11.737 -44.4156
LeftArm  -11.8855 19.4269 -27.8478
LeftForeArm  31.9264 -25.478 -3.77273
LeftHand  -0.25398 0.0180481 5.50724
RightShoulder  4.99817 8.88632 34.3882
RightArm  3.12933 -9.54946 39.879
RightForeArm  5.07733 20.6645 4.91737
RightHand  -0.766484 1.49425 -13.072
LeftUpLeg  -4.16751 0.987243 -2.79648
LeftLeg  -3.90694 19.6426 -5.85541
LeftFoot  6.36077 -0.768763 4.63707
LeftToes  1.06246e-005 4.65856e-005 -8.18502e-006
918
root  76.3084 40.1904 -3.34162 -63.7736 -84.9657 63.4196
RightUpLeg  5.56815 -10.5963 -7.57049
RightLeg  8.03276 -11.4787 3.46132
RightFoot  -9.9664 -0.0494685 -1.49452
RightToes  0.00048216 0.542163 -0.142577
Spine  2.65547 -0.228422 2.23938
Spine1  9.95216 0.532338 -2.06581
HEad  -11.6234 -2.89129 1.39015
LeftShoulder1  7.76007 -11.7637 -44.2553
LeftArm  -12.0671 19.3801 -27.8679
LeftForeArm  31.8846 -25.4671 -3.77257
LeftHand  -0.25398 0.0180481 5.50724
RightShoulder  5.05003 8.96409 34.55
RightArm  3.24608 -9.44238 39.9657
RightForeArm  4.63593 21.1357 4.84861
RightHand  -0.726369 1.07135 -13.1623
LeftUpLeg  -4.21912 0.945703 -2.79369
LeftLeg  -3.88328 19.4922 -5.7892
LeftFoot  6.43635 -0.766771 4.62698
LeftToes  1.06246e-005 4.65856e-005 -8.18502e-006
919
root  76.3156 40.1909 -3.36039 -61.5876 -84.9087 61.2098
RightUpLeg  5.63525 -10.5372 -7.46962
RightLeg  7.96476 -11.7213 3.44725
RightFoot  -9.94679 -0.0502496 -1.4839
RightToes  0.00048216 0.542163 -0.142577
Spine  2.57095 -0.229238 2.49434
Spine1  10.019 0.641013 -2.45453
HEad  -11.8541 -3.55146 1.34355
LeftShoulder1  7.75728 -11.7954 -44.1424
LeftArm  -12.3438 19.6094 -27.7971
LeftForeArm  31.8147 -25.6057 -3.80541
LeftHand  -0.25398 0.0180481 5.50724
RightShoulder  5.1186 9.06495 34.7679
RightArm  3.54895 -9.51228 39.906
RightForeArm  4.20038 21.5651 4.80904
RightHand  -0.681284 0.664146 -13.1403
LeftUpLeg  -4.2306 0.980985 -2.74131
LeftLeg  -3.86016 19.2742 -5.78059
LeftFoot  6.48295 -0.767251 4.6501
LeftToes  1.06246e-005 4.65856e-005 -8.18502e-006
920
root  76.3169 40.1912 -3.38064 -58.9585 -84.8344 58.4773
RightUpLeg  5.8522 -10.4413 -7.34354
RightLeg  7.79819 -12.0402 3.43113
RightFoot  -9.91012 -0.0516528 -1.46331
RightToes  0.00048216 0.542163 -0.142577
Spine  3.0355 -0.184319 2.50937
Spine1  9.27179 0.695308 -2.51272
HEad  -11.6207 -4.02166 1.08335
LeftShoulder1  7.80266 -11.8336 -44.2977
LeftArm  -12.3756 20.1469 -27.4952
LeftForeArm  31.7402 -25.7656 -3.84303
LeftHand  -0.25398 0.0180481 5.50724
RightShoulder  5.10929 9.01746 34.8466
RightArm  3.93665 -9.91526 39.8165
RightForeArm  3.89021 21.8477 4.79814
RightHand  -0.661399 0.480157 -13.1395
LeftUpLeg  -4.18227 1.03357 -2.6771
LeftLeg  -3.76143 18.9992 -5.73294
LeftFoot  6.50135 -0.767013 4.64224
LeftToes  1.06246e-005 4.65856e-005 -8.18502e-006
921
root  76.3194 40.1913 -3.40267 -56.6233 -84.7384 56.0572
RightUpLeg  6.0375 -10.3825 -7.24579
RightLeg  7.65327 -12.3239 3.42981
RightFoot  -9.8756 -0.0516959 -1.4639
RightToes  0.00048216 0.542163 -0.142577
Spine  3.58525 -0.0776881 2.44292
Spine1  8.32564 0.793008 -2.50903
HEad  -11.2796 -4.2334 0.619606
LeftShoulder1  7.83419 -11.8472 -44.444
LeftArm  -12.3198 20.6691 -27.2331
LeftForeArm  31.7101 -25.7893 -3.8496
LeftHand  -0.25398 0.0180481 5.50724
RightShoulder  5.04209 8.84661 34.8667
RightArm  4.16396 -10.4902 39.7452
RightForeArm  3.55688 22.1287 4.79494
RightHand  -0.646078 0.299953 -13.2232
LeftUpLeg  -4.1328 1.07224 -2.62933
LeftLeg  -3.7134 18.7409 -5.70751
LeftFoot  6.5554 -0.76855 4.62462
LeftToes  1.06246e-005 4.65856e-005 -8.18502e-006
